{
  "asset": {
    "version": "2.0",
    "generator": "3dpea GLTFExporter"
  },
  "scenes": [
    {
      "name": "AuxScene",
      "nodes": [
        19
      ]
    }
  ],
  "scene": 0,
  "nodes": [
    {
      "name": "Object_6",
      "extras": {
        "name": "Object_6"
      },
      "mesh": 0
    },
    {
      "matrix": [
        0.25082719326019287,
        0,
        0,
        0,
        0,
        5.5694825031914e-17,
        0.25082719326019287,
        0,
        0,
        -0.2508271634578705,
        5.56948184144691e-17,
        0,
        0,
        -0.39580875635147095,
        0.7341046333312988,
        1
      ],
      "name": "LED_Indicator001_0",
      "extras": {
        "name": "LED Indicator.001_0"
      },
      "children": [
        0
      ]
    },
    {
      "name": "Object_8",
      "extras": {
        "name": "Object_8"
      },
      "mesh": 1
    },
    {
      "matrix": [
        0.03502778708934784,
        0,
        0,
        0,
        0,
        0.03502779081463814,
        0,
        0,
        0,
        0,
        0.03502779081463814,
        0,
        0,
        1.2318196296691895,
        0,
        1
      ],
      "name": "Mic001_1",
      "extras": {
        "name": "Mic.001_1"
      },
      "children": [
        2
      ]
    },
    {
      "name": "Object_10",
      "extras": {
        "name": "Object_10"
      },
      "mesh": 2
    },
    {
      "matrix": [
        0.06024157772706086,
        0.24348556064225924,
        2.1356681574339234e-8,
        0,
        4.707397787317046e-9,
        -2.3165303550855883e-8,
        0.2508271634578693,
        0,
        0.2434855895722814,
        -0.060241584884733565,
        -1.0133265060099619e-8,
        0,
        0,
        -0.3958088755607605,
        0.4677150845527649,
        1
      ],
      "name": "Mode_Selector001_2",
      "extras": {
        "name": "Mode Selector.001_2"
      },
      "children": [
        4
      ]
    },
    {
      "name": "Object_12",
      "extras": {
        "name": "Object_12"
      },
      "mesh": 3
    },
    {
      "matrix": [
        0.08134536445140839,
        0,
        0,
        0,
        0,
        -1.3713804465255322e-8,
        0.08134537190198782,
        0,
        0,
        -0.08134536445140722,
        -1.3713803209181337e-8,
        0,
        0,
        -0.8632307052612305,
        0.5254756212234497,
        1
      ],
      "name": "Volume_Button001_3",
      "extras": {
        "name": "Volume Button.001_3"
      },
      "children": [
        6
      ]
    },
    {
      "name": "Object_4",
      "extras": {
        "name": "Object_4"
      },
      "mesh": 4
    },
    {
      "matrix": [
        0.09840768694961372,
        7.551710957261831e-10,
        -0.022112332414103212,
        0,
        -0.005723092252567708,
        0.09742466176638555,
        -0.025469777979773327,
        0,
        0.021358873094346514,
        0.026104853481112404,
        0.09505452782710683,
        0,
        0.014156744815409184,
        0.3562979996204376,
        0.026445502415299416,
        1
      ],
      "name": "Body001_4",
      "extras": {
        "name": "Body.001_4"
      },
      "children": [
        1,
        3,
        5,
        7,
        8
      ]
    },
    {
      "name": "Object_18",
      "extras": {
        "name": "Object_18"
      },
      "mesh": 5
    },
    {
      "matrix": [
        7.737086799073948e-17,
        -0.17422370612621305,
        0,
        0,
        0.17422370612621305,
        7.737086799073948e-17,
        0,
        0,
        0,
        0,
        0.13626769185066223,
        0,
        0,
        1.7615069150924683,
        0,
        1
      ],
      "name": "Fork_Buttons001_5",
      "extras": {
        "name": "Fork Buttons.001_5"
      },
      "children": [
        10
      ]
    },
    {
      "name": "Object_16",
      "extras": {
        "name": "Object_16"
      },
      "mesh": 6
    },
    {
      "matrix": [
        6.002027988433838,
        0,
        0,
        0,
        0,
        6.002028942108154,
        0,
        0,
        0,
        0,
        7.673831462860107,
        0,
        0.04255107045173645,
        0.06584358215332031,
        0,
        1
      ],
      "name": "Fork001_6",
      "extras": {
        "name": "Fork.001_6"
      },
      "children": [
        11,
        12
      ]
    },
    {
      "name": "Object_14",
      "extras": {
        "name": "Object_14"
      },
      "mesh": 7
    },
    {
      "matrix": [
        0.016395736495279617,
        0,
        -0.0036841427783390742,
        0,
        0,
        0.01680455543100834,
        0,
        0,
        0.0036841427783390742,
        0,
        0.016395736495279617,
        0,
        0.013459104113280773,
        0.1775234043598175,
        0.026602262631058693,
        1
      ],
      "name": "Stand001_7",
      "extras": {
        "name": "Stand.001_7"
      },
      "children": [
        13,
        14
      ]
    },
    {
      "matrix": [
        1,
        0,
        0,
        0,
        0,
        2.220446049250313e-16,
        1,
        0,
        0,
        -1,
        2.220446049250313e-16,
        0,
        0,
        0,
        0,
        1
      ],
      "name": "GLTF_SceneRootNode",
      "extras": {
        "name": "GLTF_SceneRootNode"
      },
      "children": [
        9,
        15
      ]
    },
    {
      "name": "root",
      "extras": {
        "name": "root"
      },
      "children": [
        16
      ]
    },
    {
      "matrix": [
        0.6276363134384155,
        0,
        0,
        0,
        0,
        1.393632572540361e-16,
        -0.6276363134384155,
        0,
        0,
        0.6276363134384155,
        1.393632572540361e-16,
        0,
        2.195918724634538e-10,
        -0.0009679283248260617,
        -2.1959184492280144e-10,
        1
      ],
      "name": "Sketchfab_model",
      "extras": {
        "name": "Sketchfab_model"
      },
      "children": [
        17
      ]
    },
    {
      "name": "microphone",
      "extras": {
        "nowCenter": true
      },
      "children": [
        18
      ]
    }
  ],
  "bufferViews": [
    {
      "buffer": 0,
      "byteOffset": 0,
      "byteLength": 2304,
      "target": 34962,
      "byteStride": 12
    },
    {
      "buffer": 0,
      "byteOffset": 2304,
      "byteLength": 2304,
      "target": 34962,
      "byteStride": 12
    },
    {
      "buffer": 0,
      "byteOffset": 4608,
      "byteLength": 1536,
      "target": 34962,
      "byteStride": 8
    },
    {
      "buffer": 0,
      "byteOffset": 6144,
      "byteLength": 2304,
      "target": 34963
    },
    {
      "buffer": 0,
      "byteOffset": 8448,
      "byteLength": 139152,
      "target": 34962,
      "byteStride": 12
    },
    {
      "buffer": 0,
      "byteOffset": 147600,
      "byteLength": 139152,
      "target": 34962,
      "byteStride": 12
    },
    {
      "buffer": 0,
      "byteOffset": 286752,
      "byteLength": 92768,
      "target": 34962,
      "byteStride": 8
    },
    {
      "buffer": 0,
      "byteOffset": 379520,
      "byteLength": 129456,
      "target": 34963
    },
    {
      "buffer": 0,
      "byteOffset": 508976,
      "byteLength": 3132,
      "target": 34962,
      "byteStride": 12
    },
    {
      "buffer": 0,
      "byteOffset": 512108,
      "byteLength": 3132,
      "target": 34962,
      "byteStride": 12
    },
    {
      "buffer": 0,
      "byteOffset": 515240,
      "byteLength": 2088,
      "target": 34962,
      "byteStride": 8
    },
    {
      "buffer": 0,
      "byteOffset": 517328,
      "byteLength": 4704,
      "target": 34963
    },
    {
      "buffer": 0,
      "byteOffset": 522032,
      "byteLength": 1932,
      "target": 34962,
      "byteStride": 12
    },
    {
      "buffer": 0,
      "byteOffset": 523964,
      "byteLength": 1932,
      "target": 34962,
      "byteStride": 12
    },
    {
      "buffer": 0,
      "byteOffset": 525896,
      "byteLength": 1288,
      "target": 34962,
      "byteStride": 8
    },
    {
      "buffer": 0,
      "byteOffset": 527184,
      "byteLength": 3456,
      "target": 34963
    },
    {
      "buffer": 0,
      "byteOffset": 530640,
      "byteLength": 23184,
      "target": 34962,
      "byteStride": 12
    },
    {
      "buffer": 0,
      "byteOffset": 553824,
      "byteLength": 23184,
      "target": 34962,
      "byteStride": 12
    },
    {
      "buffer": 0,
      "byteOffset": 577008,
      "byteLength": 15456,
      "target": 34962,
      "byteStride": 8
    },
    {
      "buffer": 0,
      "byteOffset": 592464,
      "byteLength": 28584,
      "target": 34963
    },
    {
      "buffer": 0,
      "byteOffset": 621048,
      "byteLength": 10008,
      "target": 34962,
      "byteStride": 12
    },
    {
      "buffer": 0,
      "byteOffset": 631056,
      "byteLength": 10008,
      "target": 34962,
      "byteStride": 12
    },
    {
      "buffer": 0,
      "byteOffset": 641064,
      "byteLength": 6672,
      "target": 34962,
      "byteStride": 8
    },
    {
      "buffer": 0,
      "byteOffset": 647736,
      "byteLength": 12288,
      "target": 34963
    },
    {
      "buffer": 0,
      "byteOffset": 660024,
      "byteLength": 16788,
      "target": 34962,
      "byteStride": 12
    },
    {
      "buffer": 0,
      "byteOffset": 676812,
      "byteLength": 16788,
      "target": 34962,
      "byteStride": 12
    },
    {
      "buffer": 0,
      "byteOffset": 693600,
      "byteLength": 11192,
      "target": 34962,
      "byteStride": 8
    },
    {
      "buffer": 0,
      "byteOffset": 704792,
      "byteLength": 13920,
      "target": 34963
    },
    {
      "buffer": 0,
      "byteOffset": 718712,
      "byteLength": 4236,
      "target": 34962,
      "byteStride": 12
    },
    {
      "buffer": 0,
      "byteOffset": 722948,
      "byteLength": 4236,
      "target": 34962,
      "byteStride": 12
    },
    {
      "buffer": 0,
      "byteOffset": 727184,
      "byteLength": 2824,
      "target": 34962,
      "byteStride": 8
    },
    {
      "buffer": 0,
      "byteOffset": 730008,
      "byteLength": 7296,
      "target": 34963
    }
  ],
  "buffers": [
    {
      "byteLength": 737304,
      "uri": "data:application/octet-stream;base64,"
    }
  ],
  "accessors": [
    {
      "bufferView": 0,
      "componentType": 5126,
      "count": 192,
      "max": [
        1,
        0.9976375102996826,
        1
      ],
      "min": [
        -1,
        0,
        -1
      ],
      "type": "VEC3"
    },
    {
      "bufferView": 1,
      "componentType": 5126,
      "count": 192,
      "max": [
        1.025455117225647,
        -0.49041658639907837,
        0.9969937801361084
      ],
      "min": [
        -1.025455117225647,
        -0.7872798442840576,
        -1.0193592309951782
      ],
      "type": "VEC3"
    },
    {
      "bufferView": 2,
      "componentType": 5126,
      "count": 192,
      "max": [
        0,
        0
      ],
      "min": [
        0,
        0
      ],
      "type": "VEC2"
    },
    {
      "bufferView": 3,
      "componentType": 5125,
      "count": 576,
      "max": [
        191
      ],
      "min": [
        0
      ],
      "type": "SCALAR"
    },
    {
      "bufferView": 4,
      "componentType": 5126,
      "count": 11596,
      "max": [
        0.9998476505279541,
        1,
        0.9998476505279541
      ],
      "min": [
        -0.9998476505279541,
        0.0025025191716849804,
        -0.9998476505279541
      ],
      "type": "VEC3"
    },
    {
      "bufferView": 5,
      "componentType": 5126,
      "count": 11596,
      "max": [
        16.79720115661621,
        1.0527238845825195,
        16.797237396240234
      ],
      "min": [
        -16.797107696533203,
        -33.22763442993164,
        -16.79712677001953
      ],
      "type": "VEC3"
    },
    {
      "bufferView": 6,
      "componentType": 5126,
      "count": 11596,
      "max": [
        1.0016136169433594,
        1
      ],
      "min": [
        -0.0015736347995698452,
        0
      ],
      "type": "VEC2"
    },
    {
      "bufferView": 7,
      "componentType": 5125,
      "count": 32364,
      "max": [
        11595
      ],
      "min": [
        0
      ],
      "type": "SCALAR"
    },
    {
      "bufferView": 8,
      "componentType": 5126,
      "count": 261,
      "max": [
        0.9999939203262329,
        1,
        0.9985266923904419
      ],
      "min": [
        -0.9999939203262329,
        0,
        -0.9994157552719116
      ],
      "type": "VEC3"
    },
    {
      "bufferView": 9,
      "componentType": 5126,
      "count": 261,
      "max": [
        1.0000001192092896,
        0.8714478015899658,
        1.000000238418579
      ],
      "min": [
        -0.9999998807907104,
        7.152557373046875e-7,
        -0.9999997019767761
      ],
      "type": "VEC3"
    },
    {
      "bufferView": 10,
      "componentType": 5126,
      "count": 261,
      "max": [
        0,
        0
      ],
      "min": [
        0,
        0
      ],
      "type": "VEC2"
    },
    {
      "bufferView": 11,
      "componentType": 5125,
      "count": 1176,
      "max": [
        260
      ],
      "min": [
        0
      ],
      "type": "SCALAR"
    },
    {
      "bufferView": 12,
      "componentType": 5126,
      "count": 161,
      "max": [
        0.9923962950706482,
        1,
        0.9923962950706482
      ],
      "min": [
        -0.9923962950706482,
        0.12308323383331299,
        -0.9923962950706482
      ],
      "type": "VEC3"
    },
    {
      "bufferView": 13,
      "componentType": 5126,
      "count": 161,
      "max": [
        1.2517162561416626,
        2.1268820762634277,
        1.2517166137695312
      ],
      "min": [
        -1.2517160177230835,
        0.0000019073486328125,
        -1.2517157793045044
      ],
      "type": "VEC3"
    },
    {
      "bufferView": 14,
      "componentType": 5126,
      "count": 161,
      "max": [
        0,
        0
      ],
      "min": [
        0,
        0
      ],
      "type": "VEC2"
    },
    {
      "bufferView": 15,
      "componentType": 5125,
      "count": 864,
      "max": [
        160
      ],
      "min": [
        0
      ],
      "type": "SCALAR"
    },
    {
      "bufferView": 16,
      "componentType": 5126,
      "count": 1932,
      "max": [
        1,
        1,
        1
      ],
      "min": [
        -1,
        -1,
        -1
      ],
      "type": "VEC3"
    },
    {
      "bufferView": 17,
      "componentType": 5126,
      "count": 1932,
      "max": [
        0.6096580028533936,
        0.08512020111083984,
        0.6109089255332947
      ],
      "min": [
        -0.6096577644348145,
        -1.2673463821411133,
        -0.6096579432487488
      ],
      "type": "VEC3"
    },
    {
      "bufferView": 18,
      "componentType": 5126,
      "count": 1932,
      "max": [
        1,
        1
      ],
      "min": [
        -0.010303916409611702,
        0
      ],
      "type": "VEC2"
    },
    {
      "bufferView": 19,
      "componentType": 5125,
      "count": 7146,
      "max": [
        1931
      ],
      "min": [
        0
      ],
      "type": "SCALAR"
    },
    {
      "bufferView": 20,
      "componentType": 5126,
      "count": 834,
      "max": [
        1,
        1,
        1
      ],
      "min": [
        -1,
        -1,
        -1
      ],
      "type": "VEC3"
    },
    {
      "bufferView": 21,
      "componentType": 5126,
      "count": 834,
      "max": [
        1.000007152557373,
        4.6849141120910645,
        1.000000238418579
      ],
      "min": [
        -0.999992847442627,
        -4.684913158416748,
        -0.9999997019767761
      ],
      "type": "VEC3"
    },
    {
      "bufferView": 22,
      "componentType": 5126,
      "count": 834,
      "max": [
        0,
        0
      ],
      "min": [
        0,
        0
      ],
      "type": "VEC2"
    },
    {
      "bufferView": 23,
      "componentType": 5125,
      "count": 3072,
      "max": [
        833
      ],
      "min": [
        0
      ],
      "type": "SCALAR"
    },
    {
      "bufferView": 24,
      "componentType": 5126,
      "count": 1399,
      "max": [
        1,
        1,
        1
      ],
      "min": [
        -1,
        -1,
        -1
      ],
      "type": "VEC3"
    },
    {
      "bufferView": 25,
      "componentType": 5126,
      "count": 1399,
      "max": [
        0.6473160982131958,
        1.9410500526428223,
        0.14057311415672302
      ],
      "min": [
        -0.6473160982131958,
        -0.013317912817001343,
        -0.14057311415672302
      ],
      "type": "VEC3"
    },
    {
      "bufferView": 26,
      "componentType": 5126,
      "count": 1399,
      "max": [
        0.875,
        0.625
      ],
      "min": [
        0,
        0
      ],
      "type": "VEC2"
    },
    {
      "bufferView": 27,
      "componentType": 5125,
      "count": 3480,
      "max": [
        1398
      ],
      "min": [
        0
      ],
      "type": "SCALAR"
    },
    {
      "bufferView": 28,
      "componentType": 5126,
      "count": 353,
      "max": [
        1,
        0.8654661774635315,
        1
      ],
      "min": [
        -1,
        -1,
        -1
      ],
      "type": "VEC3"
    },
    {
      "bufferView": 29,
      "componentType": 5126,
      "count": 353,
      "max": [
        6.122691631317139,
        -0.0000015348196029663086,
        6.122694492340088
      ],
      "min": [
        -6.1226911544799805,
        -4.60899543762207,
        -6.122689723968506
      ],
      "type": "VEC3"
    },
    {
      "bufferView": 30,
      "componentType": 5126,
      "count": 353,
      "max": [
        0,
        0
      ],
      "min": [
        0,
        0
      ],
      "type": "VEC2"
    },
    {
      "bufferView": 31,
      "componentType": 5125,
      "count": 1824,
      "max": [
        352
      ],
      "min": [
        0
      ],
      "type": "SCALAR"
    }
  ],
  "materials": [
    {
      "pbrMetallicRoughness": {
        "metallicFactor": 1,
        "roughnessFactor": 1
      },
      "emissiveFactor": [
        0,
        0.00871893,
        1
      ],
      "doubleSided": true,
      "name": "material"
    },
    {
      "pbrMetallicRoughness": {
        "baseColorFactor": [
          0.00257944,
          0.00257944,
          0.00257944,
          1
        ],
        "metallicFactor": 0.75969,
        "roughnessFactor": 0.375969
      },
      "doubleSided": true,
      "name": "metall_rough"
    },
    {
      "pbrMetallicRoughness": {
        "baseColorFactor": [
          0.00257944,
          0.00257944,
          0.00257944,
          1
        ],
        "metallicFactor": 0.75969,
        "roughnessFactor": 0.375969
      },
      "doubleSided": true,
      "name": "metall_rough"
    },
    {
      "pbrMetallicRoughness": {
        "baseColorFactor": [
          0.00257944,
          0.00257944,
          0.00257944,
          1
        ],
        "metallicFactor": 0.75969,
        "roughnessFactor": 0.375969
      },
      "doubleSided": true,
      "name": "metall_rough"
    },
    {
      "pbrMetallicRoughness": {
        "baseColorFactor": [
          0.0100218,
          0.0100218,
          0.0100218,
          1
        ],
        "metallicFactor": 0.674419,
        "roughnessFactor": 0.414729
      },
      "doubleSided": true,
      "name": "Metall"
    },
    {
      "pbrMetallicRoughness": {
        "baseColorFactor": [
          0.0100218,
          0.0100218,
          0.0100218,
          1
        ],
        "metallicFactor": 0.674419,
        "roughnessFactor": 0.414729
      },
      "doubleSided": true,
      "name": "Metall"
    },
    {
      "pbrMetallicRoughness": {
        "baseColorFactor": [
          0.0100218,
          0.0100218,
          0.0100218,
          1
        ],
        "metallicFactor": 0.674419,
        "roughnessFactor": 0.414729
      },
      "doubleSided": true,
      "name": "Metall"
    },
    {
      "pbrMetallicRoughness": {
        "baseColorFactor": [
          0.00257944,
          0.00257944,
          0.00257944,
          1
        ],
        "metallicFactor": 0.75969,
        "roughnessFactor": 0.375969
      },
      "doubleSided": true,
      "name": "metall_rough"
    }
  ],
  "meshes": [
    {
      "primitives": [
        {
          "mode": 4,
          "attributes": {
            "NORMAL": 0,
            "POSITION": 1,
            "TEXCOORD_0": 2
          },
          "indices": 3,
          "material": 0
        }
      ]
    },
    {
      "primitives": [
        {
          "mode": 4,
          "attributes": {
            "NORMAL": 4,
            "POSITION": 5,
            "TEXCOORD_0": 6
          },
          "indices": 7,
          "material": 1
        }
      ]
    },
    {
      "primitives": [
        {
          "mode": 4,
          "attributes": {
            "NORMAL": 8,
            "POSITION": 9,
            "TEXCOORD_0": 10
          },
          "indices": 11,
          "material": 2
        }
      ]
    },
    {
      "primitives": [
        {
          "mode": 4,
          "attributes": {
            "NORMAL": 12,
            "POSITION": 13,
            "TEXCOORD_0": 14
          },
          "indices": 15,
          "material": 3
        }
      ]
    },
    {
      "primitives": [
        {
          "mode": 4,
          "attributes": {
            "NORMAL": 16,
            "POSITION": 17,
            "TEXCOORD_0": 18
          },
          "indices": 19,
          "material": 4
        }
      ]
    },
    {
      "primitives": [
        {
          "mode": 4,
          "attributes": {
            "NORMAL": 20,
            "POSITION": 21,
            "TEXCOORD_0": 22
          },
          "indices": 23,
          "material": 5
        }
      ]
    },
    {
      "primitives": [
        {
          "mode": 4,
          "attributes": {
            "NORMAL": 24,
            "POSITION": 25,
            "TEXCOORD_0": 26
          },
          "indices": 27,
          "material": 6
        }
      ]
    },
    {
      "primitives": [
        {
          "mode": 4,
          "attributes": {
            "NORMAL": 28,
            "POSITION": 29,
            "TEXCOORD_0": 30
          },
          "indices": 31,
          "material": 7
        }
      ]
    }
  ]
}